REM DIRINDEX 1\2,1\3
REM DIRNAME cjc052,folder01,folder02
TITLE ""
FILE "Disk1Track23.mp3" MP3
  TRACK 01 AUDIO
    TITLE "2:cjc052_0138"
    INDEX 01 00:00:00
  TRACK 02 AUDIO
    TITLE "2:cjc052_0139"
    INDEX 01 00:03:53
  TRACK 03 AUDIO
    TITLE "2:cjc052_0140"
    INDEX 01 00:07:72
  TRACK 04 AUDIO
    TITLE "2:cjc052_0141"
    INDEX 01 00:17:39
  TRACK 05 AUDIO
    TITLE "2:cjc052_0142"
    INDEX 01 00:28:51
  TRACK 06 AUDIO
    TITLE "0:"
    INDEX 01 00:38:00
